HIERARCHY
ROOT Hips
{
 OFFSET 0.000000 0.000000 0.000000
 CHANNELS 6 Xposition Yposition Zposition Yrotation Xrotation Zrotation
 JOINT Chest
 {
  OFFSET 0.000000 9.585900 0.002600
  CHANNELS 3 Yrotation Xrotation Zrotation
  JOINT Chest2
  {
   OFFSET 0.000000 9.601200 -0.005300
   CHANNELS 3 Yrotation Xrotation Zrotation
   JOINT Chest3
   {
    OFFSET 0.000000 9.561800 0.000000
    CHANNELS 3 Yrotation Xrotation Zrotation
    JOINT Chest4
    {
     OFFSET 0.000000 9.552100 0.000000
     CHANNELS 3 Yrotation Xrotation Zrotation
     JOINT Neck
     {
      OFFSET 0.000000 14.453000 0.000000
      CHANNELS 3 Yrotation Xrotation Zrotation
      JOINT Head
      {
       OFFSET 0.000000 8.936500 -0.011300
       CHANNELS 3 Yrotation Xrotation Zrotation
       End Site
       {
        OFFSET 0.000000 17.073600 -0.006000
       }
      }
     }
     JOINT RightCollar
     {
      OFFSET -2.921100 9.558500 0.000000
      CHANNELS 3 Yrotation Xrotation Zrotation
      JOINT RightShoulder
      {
       OFFSET -13.519700 0.000000 0.000000
       CHANNELS 3 Yrotation Xrotation Zrotation
       JOINT RightElbow
       {
        OFFSET 0.000000 -29.696600 0.000000
        CHANNELS 3 Yrotation Xrotation Zrotation
        JOINT RightWrist
        {
         OFFSET 0.000000 -24.004700 0.000000
         CHANNELS 3 Yrotation Xrotation Zrotation
         End Site
         {
          OFFSET 0.000000 -17.728500 0.000000
         }
        }
       }
      }
     }
     JOINT LeftCollar
     {
      OFFSET 2.921100 9.558500 0.000000
      CHANNELS 3 Yrotation Xrotation Zrotation
      JOINT LeftShoulder
      {
       OFFSET 13.519700 0.000000 0.000000
       CHANNELS 3 Yrotation Xrotation Zrotation
       JOINT LeftElbow
       {
        OFFSET 0.000000 -29.696600 0.000000
        CHANNELS 3 Yrotation Xrotation Zrotation
        JOINT LeftWrist
        {
         OFFSET 0.000000 -24.004700 0.000000
         CHANNELS 3 Yrotation Xrotation Zrotation
         End Site
         {
          OFFSET 0.000000 -17.728500 0.000000
         }
        }
       }
      }
     }
    }
   }
  }
 }
 JOINT RightHip
 {
  OFFSET -7.771700 -0.012900 -0.001300
  CHANNELS 3 Yrotation Xrotation Zrotation
  JOINT RightKnee
  {
   OFFSET 0.000000 -40.869800 0.001200
   CHANNELS 3 Yrotation Xrotation Zrotation
   JOINT RightAnkle
   {
    OFFSET 0.000000 -39.717900 0.002100
    CHANNELS 3 Yrotation Xrotation Zrotation
    JOINT RightToe
    {
     OFFSET 0.000000 -4.965400 11.033500
     CHANNELS 3 Yrotation Xrotation Zrotation
     End Site
     {
      OFFSET 0.000000 -1.423100 5.872300
     }
    }
   }
  }
 }
 JOINT LeftHip
 {
  OFFSET 7.771700 -0.012900 -0.001300
  CHANNELS 3 Yrotation Xrotation Zrotation
  JOINT LeftKnee
  {
   OFFSET 0.000000 -40.869800 0.001200
   CHANNELS 3 Yrotation Xrotation Zrotation
   JOINT LeftAnkle
   {
    OFFSET 0.000000 -39.717900 0.002100
    CHANNELS 3 Yrotation Xrotation Zrotation
    JOINT LeftToe
    {
     OFFSET 0.000000 -4.965400 11.033500
     CHANNELS 3 Yrotation Xrotation Zrotation
     End Site
     {
      OFFSET 0.000000 -1.423100 5.872300
     }
    }
   }
  }
 }
}
MOTION
Frames: 16
Frame Time: 0.008333
0.000000 85.388000 0.000000 0.000000 -5.767877 0.000000 0.000000 11.653817 0.000000 0.000000 -5.885947 0.000000 0.000000 -0.000000 0.000000 0.000000 -0.000000 0.000000 0.000000 12.528835 0.000000 0.000000 0.711642 0.000000 0.000000 -0.000000 0.000000 0.000000 0.000000 -90.000000 0.000000 -2.309062 0.000000 0.000000 2.309062 0.000000 0.000000 -0.000000 0.000000 0.000000 -0.000000 90.000000 0.000000 -2.309062 0.000000 0.000000 2.309062 0.000000 0.000000 8.520406 0.000000 0.000000 1.905762 0.000000 -0.000000 -4.658285 0.000000 0.000000 -0.000000 0.000000 0.000000 8.520406 0.000000 0.000000 1.905762 0.000000 -0.000000 -4.658285 0.000000 0.000000 -0.000000 0.000000
-18.203528 57.850053 72.232267 172.008050 -29.543765 -2.883336 4.071742 19.324071 4.724805 0.420333 2.410818 0.311991 0.663298 3.977464 0.515714 3.133375 16.806831 2.565877 -0.025286 16.927400 -0.242656 0.036727 -4.359694 -0.440268 2.325713 -3.789684 -0.917661 6.724644 -11.604771 -16.038884 -154.779277 -85.040027 -170.373723 15.049486 -10.594332 -36.427240 -6.510547 -4.553983 -1.094169 4.589379 -7.050572 2.774179 -111.958131 -82.713535 76.673749 -3.738169 -3.200044 16.771090 7.561357 -41.582616 2.505094 -5.277229 66.451749 -7.440244 4.229934 4.690034 7.261893 -0.593928 0.764845 -0.254816 -5.350592 -48.429923 6.269229 27.696497 58.697866 28.971548 -13.739719 40.277877 3.041414 0.339465 -18.738811 -8.809208
-18.205296 57.849298 72.231537 172.017644 -29.556944 -2.867415 4.079024 19.324446 4.714847 0.417628 2.415140 0.311805 0.664644 3.978093 0.515144 3.126820 16.809964 2.564321 0.034082 16.928084 -0.243508 0.126611 -4.355027 -0.450710 2.335938 -3.793110 -0.912023 6.764466 -11.609462 -16.078463 -153.701132 -85.048573 -171.349740 15.048879 -10.598177 -36.472183 -6.487643 -4.541336 -1.097815 4.536393 -7.105830 2.642678 -111.539614 -82.732851 76.254394 -3.740181 -3.209964 16.783769 7.590601 -41.571196 2.490048 -5.272981 66.461261 -7.464693 4.230944 4.685186 7.293285 -0.613624 0.760613 -0.254522 -5.331067 -48.415811 6.238147 27.689307 58.695305 28.959285 -13.738878 40.278190 3.043714 0.334030 -18.743170 -8.804214
-18.205911 57.847827 72.232177 172.033722 -29.563095 -2.862197 4.096018 19.316309 4.720973 0.401155 2.423791 0.307724 0.660298 3.978963 0.513931 3.124279 16.809593 2.562785 0.091039 16.928968 -0.244527 0.208165 -4.356776 -0.461280 2.353772 -3.797238 -0.905456 6.802990 -11.611625 -16.121971 -152.570828 -85.060514 -172.378278 15.046245 -10.605941 -36.517759 -6.436642 -4.520286 -1.118282 4.456787 -7.160990 2.511073 -111.116280 -82.741106 75.836442 -3.743960 -3.216832 16.794175 7.607115 -41.565680 2.482496 -5.284597 66.466625 -7.496605 4.228487 4.679439 7.319193 -0.621720 0.760806 -0.256740 -5.327626 -48.408054 6.220736 27.683470 58.687694 28.950903 -13.751986 40.283544 3.028623 0.353179 -18.745787 -8.799978
-18.206247 57.845984 72.233480 172.042023 -29.565797 -2.855886 4.104074 19.316784 4.720690 0.402228 2.424301 0.307637 0.645540 3.979570 0.511146 3.143604 16.808919 2.561394 0.134624 16.926878 -0.240677 0.279056 -4.364331 -0.470570 2.361872 -3.805811 -0.892448 6.843968 -11.609401 -16.169497 -151.392042 -85.073451 -173.459685 15.040907 -10.613288 -36.558712 -6.440499 -4.511225 -1.117366 4.422770 -7.189565 2.384857 -110.832013 -82.762015 75.561936 -3.742576 -3.219676 16.806019 7.626127 -41.564114 2.477300 -5.299465 66.469783 -7.528661 4.225440 4.674158 7.341883 -0.623515 0.763440 -0.259693 -5.320284 -48.402592 6.210075 27.666564 58.687872 28.932206 -13.768337 40.266398 3.013958 0.355789 -18.734403 -8.792254
-18.208300 57.843312 72.235804 172.056774 -29.558847 -2.844891 4.093901 19.310716 4.706298 0.410822 2.424948 0.309373 0.650628 3.978745 0.511275 3.151750 16.809551 2.562566 0.163758 16.921159 -0.238846 0.341058 -4.377907 -0.478611 2.363107 -3.817074 -0.879972 6.850615 -11.601676 -16.197668 -150.341018 -85.082566 -174.379572 15.035543 -10.615798 -36.592111 -6.465298 -4.509591 -1.112694 4.402138 -7.206611 2.250110 -110.527128 -82.779051 75.266724 -3.736497 -3.221600 16.819913 7.649679 -41.572207 2.460441 -5.328517 66.473643 -7.574650 4.216577 4.669115 7.366388 -0.617326 0.766148 -0.263325 -5.310542 -48.407467 6.188135 27.658404 58.677279 28.913367 -13.769772 40.273943 3.020176 0.356701 -18.737479 -8.789488
-18.208396 57.841644 72.236887 172.064720 -29.561465 -2.843287 4.094190 19.313684 4.706085 0.417606 2.425891 0.310972 0.655039 3.979429 0.511625 3.158227 16.810519 2.562243 0.188988 16.911024 -0.238276 0.394805 -4.396983 -0.486900 2.368018 -3.829726 -0.868772 6.921215 -11.595629 -16.256710 -149.021324 -85.102754 -175.627653 15.029943 -10.614951 -36.615532 -6.467414 -4.496782 -1.114734 4.362188 -7.235929 2.115522 -110.139246 -82.797905 74.887750 -3.732466 -3.226150 16.832401 7.680278 -41.571387 2.462868 -5.404342 66.473443 -7.661235 4.204597 4.666522 7.383475 -0.596428 0.767516 -0.261567 -5.309181 -48.403731 6.180840 27.650298 58.675452 28.903689 -13.764048 40.269179 3.022048 0.350550 -18.736145 -8.785911
-18.210197 57.840494 72.236768 172.077914 -29.568205 -2.835663 4.092060 19.320881 4.698778 0.420207 2.426716 0.314403 0.654718 3.979967 0.507396 3.186189 16.814802 2.564486 0.193470 16.894711 -0.232060 0.437919 -4.419388 -0.496034 2.340861 -3.841370 -0.856269 7.010214 -11.594032 -16.312488 -147.730070 -85.129541 -176.854088 15.023240 -10.614920 -36.624351 -6.480052 -4.485645 -1.116307 4.316577 -7.265583 1.979071 -109.672742 -82.816595 74.428012 -3.731003 -3.232955 16.845976 7.695237 -41.564464 2.456976 -5.433449 66.478440 -7.711339 4.202996 4.657207 7.404648 -0.600949 0.770140 -0.260539 -5.301710 -48.396554 6.158637 27.641257 58.674216 28.893187 -13.759669 40.266982 3.020635 0.351732 -18.735768 -8.782155
-18.213505 57.839882 72.235469 172.088231 -29.579233 -2.819056 4.104405 19.331896 4.699260 0.409729 2.425213 0.308854 0.654009 3.985365 0.506599 3.179260 16.811444 2.560906 0.219555 16.879924 -0.234520 0.457193 -4.432339 -0.499698 2.345887 -3.845399 -0.854152 7.076348 -11.594844 -16.353064 -146.637335 -85.161384 -177.865398 15.015653 -10.616558 -36.620575 -6.479962 -4.480540 -1.118695 4.290081 -7.280640 1.830464 -109.171909 -82.834854 73.931501 -3.731014 -3.238199 16.862177 7.722482 -41.552795 2.443197 -5.459702 66.485807 -7.763559 4.198736 4.644148 7.423758 -0.611815 0.774175 -0.249583 -5.276509 -48.383655 6.121474 27.628239 58.673593 28.874648 -13.740431 40.259137 3.040358 0.345865 -18.732707 -8.783901
-18.215731 57.838759 72.235550 172.098269 -29.579988 -2.811682 4.111822 19.329475 4.703224 0.405019 2.425753 0.306724 0.672353 3.982019 0.513085 3.152881 16.815669 2.551061 0.225482 16.872863 -0.234842 0.489351 -4.474521 -0.515154 2.386872 -3.852191 -0.853247 7.103389 -11.589244 -16.391127 -145.689728 -85.194425 -178.731549 15.009567 -10.615774 -36.611802 -6.464837 -4.465882 -1.129457 4.243571 -7.301201 1.689374 -108.652270 -82.859273 73.415875 -3.731217 -3.242149 16.878641 7.740898 -41.552220 2.430768 -5.486445 66.489513 -7.798392 4.193143 4.636664 7.432274 -0.607131 0.777751 -0.247123 -5.265799 -48.381024 6.099398 27.622741 58.667577 28.865096 -13.723941 40.261695 3.058718 0.341053 -18.736906 -8.787713
-18.217088 57.837648 72.236022 172.109086 -29.577172 -2.811210 4.114513 19.325139 4.709029 0.398138 2.425979 0.303287 0.678630 3.980452 0.515897 3.167141 16.811348 2.555917 0.210384 16.869600 -0.238361 0.515046 -4.542408 -0.535119 2.376180 -3.847982 -0.856126 7.123651 -11.588222 -16.408822 -145.000349 -85.221710 -179.304811 15.008257 -10.610457 -36.599921 -6.471453 -4.446598 -1.136278 4.200130 -7.321322 1.546343 -108.121442 -82.890354 72.886438 -3.730016 -3.247454 16.893237 7.755888 -41.555434 2.424302 -5.508716 66.492221 -7.825899 4.186028 4.629348 7.440515 -0.600026 0.782256 -0.245430 -5.263481 -48.382602 6.091206 27.608453 58.664480 28.845485 -13.706723 40.270536 3.074546 0.342832 -18.752559 -8.791147
-18.219966 57.837175 72.235104 172.123679 -29.580499 -2.802719 4.106734 19.329002 4.701007 0.395603 2.425120 0.301910 0.682855 3.979343 0.519355 3.163054 16.810880 2.554613 0.217769 16.846452 -0.244304 0.504121 -4.595810 -0.544920 2.396191 -3.852011 -0.855106 7.188887 -11.583265 -16.459652 -144.164671 -85.251655 179.917805 15.009916 -10.601169 -36.587827 -6.470149 -4.428575 -1.147121 4.165854 -7.344040 1.414415 -107.584994 -82.922517 72.348012 -3.809008 -3.232328 16.910946 7.778974 -41.552288 2.408319 -5.517627 66.500232 -7.851372 4.178886 4.618230 7.464021 -0.604547 0.785046 -0.247346 -5.250885 -48.378385 6.064807 27.598089 58.662172 28.832131 -13.702455 40.271200 3.082012 0.344531 -18.756756 -8.791624
-18.223986 57.835865 72.235587 172.144617 -29.571719 -2.791489 4.083531 19.322464 4.680220 0.404155 2.424697 0.306456 0.678776 3.977793 0.519872 3.157194 16.812106 2.551426 0.217489 16.784133 -0.256039 0.486987 -4.624212 -0.552982 2.418859 -3.850002 -0.851071 7.256991 -11.587379 -16.513235 -143.391172 -85.283839 179.196721 15.010945 -10.591031 -36.576596 -6.457256 -4.410132 -1.160290 4.121571 -7.369243 1.292064 -107.057793 -82.954139 71.816094 -3.767286 -3.246809 16.917304 7.798038 -41.561730 2.386153 -5.491845 66.511508 -7.851450 4.160492 4.609642 7.495290 -0.609914 0.784837 -0.253898 -5.232141 -48.383268 6.034006 27.601879 58.642154 28.827425 -13.748404 40.284256 3.063692 0.362273 -18.762861 -8.781776
-18.225901 57.835741 72.234475 172.154818 -29.575791 -2.785660 4.083161 19.322535 4.683917 0.410119 2.422607 0.313879 0.661962 3.983512 0.504766 3.156595 16.812301 2.552065 0.204950 16.748577 -0.264193 0.465083 -4.690073 -0.569927 2.455528 -3.847721 -0.846416 7.288853 -11.590186 -16.557620 -142.914796 -85.301859 178.723217 14.984402 -10.588379 -36.498616 -6.445826 -4.391056 -1.170996 4.074344 -7.395371 1.174807 -106.547889 -82.985000 71.296691 -3.726798 -3.259572 16.925204 7.804294 -41.558546 2.375800 -5.466871 66.520016 -7.838892 4.152378 4.602961 7.507743 -0.606002 0.783730 -0.263130 -5.225256 -48.377619 6.018251 27.600007 58.638074 28.823266 -13.761582 40.286105 3.054116 0.367839 -18.764302 -8.776229
-18.227044 57.836117 72.232639 172.168444 -29.584850 -2.785129 4.077066 19.329717 4.687145 0.405837 2.423437 0.310142 0.664720 3.983943 0.508353 3.152114 16.812149 2.556794 0.180958 16.709078 -0.281508 0.432612 -4.761331 -0.587955 2.470864 -3.843947 -0.853735 7.331473 -11.593622 -16.592429 -142.483873 -85.319783 178.301073 14.954515 -10.589255 -36.428911 -6.438434 -4.376058 -1.193481 4.023985 -7.419084 1.070367 -106.053363 -83.014010 70.785635 -3.726692 -3.263868 16.937647 7.818650 -41.550016 2.368297 -5.491964 66.525441 -7.866110 4.142335 4.599352 7.511900 -0.596724 0.782431 -0.258961 -5.225890 -48.366242 6.008442 27.623240 58.631814 28.834713 -13.759117 40.279027 3.073853 0.364557 -18.766121 -8.780386
-18.227922 57.835902 72.231860 172.178210 -29.586567 -2.784951 4.074221 19.327088 4.692388 0.401568 2.425847 0.306208 0.666760 3.982116 0.512314 3.144504 16.815771 2.551107 0.156459 16.664202 -0.288691 0.390127 -4.836955 -0.606400 2.487475 -3.840136 -0.852321 7.368146 -11.597896 -16.622236 -141.861471 -85.351199 177.753575 14.949636 -10.593377 -36.430195 -6.420481 -4.352369 -1.223395 3.960185 -7.452305 0.992114 -105.598282 -83.039237 70.306748 -3.724888 -3.270325 16.951475 7.847562 -41.549842 2.356516 -5.531775 66.528582 -7.900073 4.130887 4.597170 7.513677 -0.586195 0.782463 -0.251191 -5.218434 -48.359300 5.997787 27.622362 58.622519 28.829710 -13.751937 40.274239 3.083868 0.365218 -18.765919 -8.779462
